# xmcd
#
# Track frame offsets:
#	182
#	16770
#	32635
#	50240
#	68840
#	83310
#	101147
#	118697
#	132260
#	148077
#	164220
#	182117
#	198357
#	215430
#
# Disc length: 3099 seconds
#
# Revision: 1
# Processed by: cddbd v1.5.2PL0 Copyright (c) Steve Scherf et al.
# Submitted via: audiograbber 1.83.01
#
DISCID=cb0c190e
DTITLE=Michelle Wright - The reasons why
DYEAR=1994
DGENRE=Country
TTITLE0=One good man
TTITLE1=Safe in the arms of love
TTITLE2=We've tried everything else
TTITLE3=Cold kisses
TTITLE4=The reasons why I'm gone
TTITLE5=Try getting over ou
TTITLE6=Where do we go from here
TTITLE7=Tell me more
TTITLE8=The wall
TTITLE9=The old song and dance
TTITLE10=Take it like a man
TTITLE11=Guitar talk
TTITLE12=He would be sixteen
TTITLE13=A little more comfortable
EXTD=
EXTT0=
EXTT1=
EXTT2=
EXTT3=
EXTT4=
EXTT5=
EXTT6=
EXTT7=
EXTT8=
EXTT9=
EXTT10=
EXTT11=
EXTT12=
EXTT13=
PLAYORDER=
